<?xml version="1.0" standalone="no"?>
<!DOCTYPE svg PUBLIC "-//W3C//DTD SVG 20010904//EN"
 "http://www.w3.org/TR/2001/REC-SVG-20010904/DTD/svg10.dtd">
<svg version="1.0" xmlns="http://www.w3.org/2000/svg"
 width="345.000000pt" height="422.000000pt" viewBox="0 0 345.000000 422.000000"
 preserveAspectRatio="xMidYMid meet">
<metadata>
Created by potrace 1.16, written by Peter Selinger 2001-2019
</metadata>
<g transform="translate(0.000000,422.000000) scale(0.100000,-0.100000)"
fill="#000000" stroke="none">
<path d="M77 2984 c-4 -648 -7 -1569 -7 -2045 l0 -866 1163 -6 c639 -4 1381
-7 1648 -7 l487 0 6 623 c3 342 8 1262 11 2045 l5 1422 -988 0 c-543 0 -1287
3 -1653 7 l-666 6 -6 -1179z m1898 451 c331 -15 647 -240 764 -544 59 -153 65
-191 65 -386 0 -162 -3 -190 -27 -278 -52 -194 -169 -368 -328 -486 l-82 -61
55 0 c52 0 55 -1 84 -42 70 -99 335 -474 431 -610 101 -143 103 -148 103 -202
l0 -56 -462 0 -463 1 -227 359 -228 359 0 144 0 144 143 6 c161 7 249 27 362
83 294 146 473 491 401 774 -23 91 -95 233 -157 308 -97 117 -248 211 -405
253 -74 20 -115 21 -689 27 l-610 7 -3 94 c-1 52 -1 100 2 107 4 11 118 12
588 9 321 -3 628 -7 683 -10z m-20 -537 c103 -25 196 -104 243 -206 25 -54 27
-66 27 -202 0 -144 0 -146 -33 -212 -41 -83 -120 -158 -200 -189 -51 -21 -78
-23 -274 -27 l-218 -4 0 -638 c0 -352 -3 -641 -7 -643 -5 -3 -186 -2 -403 2
l-395 6 4 1060 c2 583 6 1064 8 1068 7 11 1200 -3 1248 -15z"/>
<path d="M2235 1624 c-74 -30 -117 -41 -262 -61 l-52 -8 179 -280 178 -280
181 -3 c100 -1 181 0 181 4 0 6 -132 196 -287 411 -70 98 -73 104 -73 158 0
47 4 60 23 76 28 23 28 23 -68 -17z"/>
<path d="M916 1855 c-6 -696 -5 -850 6 -856 7 -5 90 -8 183 -6 l170 2 5 645 5
645 280 5 c271 5 281 6 317 28 50 31 102 93 116 138 22 73 -43 171 -143 215
-48 21 -64 22 -491 27 l-441 5 -7 -848z"/>
</g>
</svg>
