<?xml version="1.0"?>
<svg version="1.1" xmlns="http://www.w3.org/2000/svg" width="251" height="50" style=""><path fill="#ff0000" d="M24.688,31.972l2.1,0q2.128,0,3.528-1.4t1.4-3.528q0-1.876-1.4-3.36q-1.484-1.54-3.528-1.54l-8.764,0l-1.736,0l0,19.656l1.736,0l0-9.828l4.564,0l5.964,9.828l2.1,0z M18.024,30.236l0-6.328l8.764,0q1.288,0,2.268,0.924q0.924,0.924,0.924,2.212q0,1.344-0.924,2.268q-0.98,0.924-2.268,0.924l-8.764,0z M36.24752,41.828l1.764,0l0-19.684l-1.764,0l0,19.684z M56.93504,22.2l-15.176,0l0,1.708l6.888,0l0,17.948l1.736,0l0-17.948l6.552,0l0-1.708z M62.36256,36.424q0-1.344,0.952-2.436q0.952-1.148,2.296-1.148l0.364,0l5.236,0l0-1.736l-5.236,0l-0.364,0q-1.428-0.28-2.338-1.232t-0.91-2.268q0-1.652,0.966-2.618t2.646-0.966l9.52,0l0-1.764l-9.52,0q-2.156,0-3.752,1.596q-1.596,1.54-1.596,3.752q0,1.4,0.532,2.548t1.568,1.652q-1.036,0.756-1.568,1.988t-0.532,2.632q0,2.184,1.596,3.724q1.624,1.624,3.752,1.624l9.52,0l0-1.848l-9.52,0q-1.68,0-2.646-0.952t-0.966-2.548z M83.66608,24.244l10.556,0l0-2.128l-10.556,0q-2.072,0-3.472,1.624q-1.428,1.652-1.428,4.004q0,2.128,1.428,3.696q1.4,1.596,3.472,1.596l2.8,0l2.856,0q1.26,0,2.24,1.064q0.924,1.12,0.924,2.436q0,1.568-0.91,2.548t-2.254,0.98l-10.556,0l0,1.736l10.556,0q2.1,0,3.5-1.456t1.4-3.808q0-2.128-1.4-3.696q-1.428-1.568-3.5-1.568l-2.856,0l-2.8,0q-1.288,0-2.212-1.12q-0.952-1.036-0.952-2.408q0-1.568,0.91-2.534t2.254-0.966z M114.0136,22.144l-1.764,0l0,8.96l-11.816,0l0-8.96l-1.764,0l0,19.656l1.764,0l0-8.932l11.816,0l0,8.932l1.764,0l0-19.656z"/><path fill="#ff0000" d="M127.47333875,29.43359375l0.99609375,0q1.396484375,0,2.08984375-0.5517578125t0.693359375-1.6064453125q0-1.064453125-0.5810546875-1.572265625t-1.8212890625-0.5078125l-1.376953125,0l0,4.23828125z M134.30927625,27.16796875q0,2.3046875-1.4404296875,3.525390625t-4.0966796875,1.220703125l-1.298828125,0l0,5.078125l-3.02734375,0l0-14.27734375l4.560546875,0q2.59765625,0,3.9501953125,1.1181640625t1.3525390625,3.3349609375z M147.11953015625,36.9921875l-1.03515625-3.3984375l-5.205078125,0l-1.03515625,3.3984375l-3.26171875,0l5.0390625-14.3359375l3.701171875,0l5.05859375,14.3359375l-3.26171875,0z M145.36171765625,31.0546875q-1.435546875-4.619140625-1.6162109375-5.224609375t-0.2587890625-0.95703125q-0.322265625,1.25-1.845703125,6.181640625l3.720703125,0z M159.0606434375,36.9921875l-3.02734375,0l0-11.7578125l-3.876953125,0l0-2.51953125l10.78125,0l0,2.51953125l-3.876953125,0l0,11.7578125z M174.73222546875,36.9921875l-8.22265625,0l0-14.27734375l8.22265625,0l0,2.48046875l-5.1953125,0l0,3.134765625l4.833984375,0l0,2.48046875l-4.833984375,0l0,3.681640625l5.1953125,0l0,2.5z M179.085448125,36.9921875l0-14.27734375l3.02734375,0l0,11.77734375l5.791015625,0l0,2.5l-8.818359375,0z"/></svg>
